@startuml
!define DARK
!include G:\WorkSpace\Java\IJCode\Design-Pattern\lib\LFT-UML.puml
' 允许各种图混合使用
allowmixing

' 说明文字
'caption 传输对象模式示例图

' 页眉
'left header
'接口隔离原则
'end header

' 页脚
'right footer
'接口隔离原则
'end footer

'' 图例说明
'legend top
'【需求】
'公司考核若干个大学生和研究生，以决定是否录用。在这个问题中,大学生和研究生都有自己的成绩，
'但是他们不能依据自己的成绩单制定录用标准，录用标准必须是公司来确定。
'end legend

' 正文开始
' UML图标题
title 命令模式原理图


interface Command{
	..Field..
	--Constructor--
	__Method__
	+ {abstract}{method} execute(): void
	+ {abstract}{method} undo(): void
}
note top of Command
命令接口，
需要执行的所有命令都在这里，
可以是接口或抽象类
end note

note right of Command
核心思想：让发布请求的对象与执行请求的对象解耦。
end note

class ConcreteCommand{
	..Field..
	--Constructor--
	__Method__
	+ {method} execute(): void
	+ {method} undo(): void
}
note right of ConcreteCommand
具体命令类，
实现了 Command 接
口，聚合了接收命令者
Receiver，将一个接
收者对象与一个动作绑
定，调用接收者相应的
操作，实现执行命令。
end note

Command <|.down. ConcreteCommand


class Receiver1{
	..Field..
	--Constructor--
	__Method__
	+ {method} action(): void
}

Receiver1 -left-o ConcreteCommand


class Receiver2{
	..Field..
	--Constructor--
	__Method__
	+ {method} action(): void
}
note AS receiver
接收命令者(电视、电视)
知道如何实施和执行
一个请求相关的操作。
end note
Receiver1 .. receiver
receiver .. Receiver2

Receiver2 -down-o ConcreteCommand


class Invoker{
	..Field..
	--Constructor--
	__Method__
	+ {method} doSomethings(): Command[]
	+ {method} doAnythings(): Command[]
}
note top
发布命令者(摇控器)
end note
Invoker o-right- Command




' 客户端 人
class Client

Client .right.> Invoker
Client ..> ConcreteCommand
Client ..> Receiver1
Client ..> Receiver2






/''''说明与样式
' 类之间的关系
依赖关系..>     .>		<.		<..
继承关系--|>    -|>		<|-		<|--
实现关系..|>    .|>		<|.		<|..
关联关系-->     <-->		--		->		<->
聚合关系--o     <--o		o-		o--
组合关系--*     <--*		*-		*--

' 访问权限
- private
# protected
~ default
+ public

' 备注
1. note top of Object : 备注在对象的四周
2. note "无方位位置" as Note1
3. note left: 备注在前一个类的四周
4. note on link #red : 链接注释
5. note left of Object
	注释内容
   end note

' 包
package com.lft.design.pattern {
	' 接口
	interface Interface
	' 棒棒糖接口()-- ()- --() -()
	Interface2 ()-- A
	' 抽象类
	abstract class AbstractClass
}
' 枚举
enum TimeUnit{
	DAYS
	HOURS
	MINUTES
	SECONDS
}

' 泛型
class Eye<? extends Head>{

}

' 命名空间
namespace net.dummy #DDDDDD {
	Meeting o-- Person
	.BaseClass <|- Meeting
}

' 改变箭头方向 left right up down
A .up.> B

' 关系类
class Student{
	Name
}
Student "0..*" -- "1..*" Course
(Student, Course) . Enrollment
class Enrollment{
	drop()
	cancel()
}

' 普通类
class Person{
	..Field..
	{field}				- name: String
	{static}{field}		- head: Head
	--Constructor--
	+ Person(name: String)
	==Method==
	{method}			+ getName(): String
	{abstract}{method}	+ doSomething(): void
	__Other__
}
class Head
Person "1" *-- "1" Head : contains >

' 类说明
class A << (I,#FF7700) 说明 >>
' 箭头颜色
A .[#395862].> B
'/
@enduml
