@startuml
!define DARK
!include G:\WorkSpace\Java\IJCode\Design-Pattern\lib\LFT-UML.puml
' 允许各种图混合使用
allowmixing

' 说明文字
'caption 传输对象模式示例图

' 页眉
'left header
'接口隔离原则
'end header

' 页脚
'right footer
'接口隔离原则
'end footer

'' 图例说明
'legend top
'【需求】
'公司考核若干个大学生和研究生，以决定是否录用。在这个问题中,大学生和研究生都有自己的成绩，
'但是他们不能依据自己的成绩单制定录用标准，录用标准必须是公司来确定。
'end legend

' 正文开始
' UML图标题
title 观察者模式原理图



' 正文开始

interface Subject{
	+ {abstract}{method} registerObserver(Observer): void
	+ {abstract}{method} remove(Observer): void
	+ {abstract}{method} notifyObserver(): void
}
note top
主题接口
规定了主题需要实现的方法，
比如：添加、删除观察者，通知观察者更新数据
end note

class ConcreteSubjectA{
	+ {field} observerList: ArrayList<Observer>
}

class ConcreteSubjectB{
	+ {field} observerList: ArrayList<Observer>
}
note as ConcreteSubjectNote
具体主题类
实现了主题接口，包含可以经常发生变化的数据，
管理一个集合存放所有的观察者。以后数据变化
时通知具体的观察者。
end note
ConcreteSubjectNote .up. ConcreteSubjectA
ConcreteSubjectNote .up. ConcreteSubjectB

ConcreteSubjectA . ConcreteSubjectB
Subject <|.. (ConcreteSubjectA, ConcreteSubjectB)

interface Observer{
	+ {abstract}{method} update(): void
}
note top
观察者接口
规定了具体观察者用来更新数据的方法
end note

Subject .right.> Observer : dependence
ConcreteSubjectA o-up- Observer
ConcreteSubjectB o-up- Observer

class ConcreteObserverA{
	- {field} subject: Subject
	+ {method} update(): void
}
class ConcreteObserverB{
	- {field} subject: Subject
	+ {method} update(): void
}
note as ConcreteObserverNote
具体观察者
包含有可以存放具体主题引用的接口变量，
以便自己可以观察任意主题，主题也可以
管理观察者。
end note
ConcreteObserverNote .down. ConcreteObserverA
ConcreteObserverNote .up. ConcreteObserverB

ConcreteObserverA .. ConcreteObserverB
Observer <|.. (ConcreteObserverA,ConcreteObserverB)

class Client

Client ..> Subject
Client ..> Observer






'Student "0..*" -left- "1..*" Course
'(Student, Course) - Enrollment
'
''(Subject,Enrollment) .. CLass



' 正文结束



/''''说明与样式
' 类之间的关系
依赖关系..>     .>		<.		<..
继承关系--|>    -|>		<|-		<|--
实现关系..|>    .|>		<|.		<|..
关联关系-->     <-->		--		->		<->
聚合关系--o     <--o		o-		o--
组合关系--*     <--*		*-		*--

' 访问权限
- private
# protected
~ default
+ public

' 备注
1. note top of Object : 备注在对象的四周
2. note "无方位位置" as Note1
3. note left: 备注在前一个类的四周
4. note on link #red : 链接注释
5. note left of Object
	注释内容
   end note

' 包
package com.lft.design.pattern {
	' 接口
	interface 接口
	Fly ()-- ()- --() -()
	Talk ()-- A
	' 抽象类
	abstract class 抽象类
}
' 枚举
enum TimeUnit{
	DAYS
	HOURS
	MINUTES
	SECONDS
}

' 泛型
class Eye<? extends Head>{

}

' 命名空间
namespace net.dummy #DDDDDD {
	Meeting o-- Person
	.BaseClass <|- Meeting
}

' 改变箭头方向 left right up down
A .up.> B

' 关系类
class Student{
	Name
}
Student "0..*" -- "1..*" Course
(Student, Course) . Enrollment
class Enrollment{
	drop()
	cancel()
}

' 普通类
class Person{
	..Field..
	{field}				- name: String
	{static}{field}		- head: Head
	--Constructor--
	+ Person(name: String)
	==Method==
	{method}			+ getName(): String
	{abstract}{method}	+ doSomething(): void
	__Other__
}
class Head
Person "1" *-- "1" Head : contains >

' 类说明
class A << (I,#FF7700) 说明 >>
' 箭头颜色
A .[#395862].> B
'/
@enduml
