@startuml
title UML类图


class Class{
	+ forName()
}

abstract class ClassLoader{
	+ {static}{method} getClassLoader(caller):ClassLoader
}
class System{
	+ {static}{method} getSecurityManager(): SecurityManager
}

Class *-- ClassLoader
Class *-- System

class Client

Client .right.> Class


/'
'''' 类之间的关系
依赖关系..>     .>		<.		<..
继承关系--|>    -|>		<|-		<|--
实现关系..|>    .|>		<|.		<|..
关联关系-->     <-->		--		->		<->
聚合关系--o     <--o		o-		o--
组合关系--*     <--*		*-		*--

'''' 访问权限
- private
# protected
~ default
+ public

'''' 备注
note top of Object : 备注在对象的四周
note "无方位位置" as Note1
note left: 备注在前一个类的四周
note on link #red : 链接注释

'''' 包
package com.lft.design.pattern {
	' 接口
	interface Interface
	' 棒棒糖接口()-- ()- --() -()
	Interface2 ()-- A
	' 抽象类
	abstract class AbstractClass
}
' 枚举
enum TimeUnit{
	DAYS
	HOURS
	MINUTES
	SECONDS
}

'''' 泛型
class Eye<? extends Head>{

}

'''' 命名空间
namespace net.dummy #DDDDDD {
	Meeting o-- Person
	.BaseClass <|- Meeting
}

'''' 改变箭头方向 left right up down
A .up.> B

'''' 关系类
class Student{
	Name
}
Student "0..*" -- "1..*" Course
(Student, Course) . Enrollment
class Enrollment{
	drop()
	cancel()
}

' 普通类
class Person{
	..Field..
	{field}				- name: String
	{static}{field}		- head: Head
	--Constructor--
	+ Person(name: String)
	==Method==
	{method}			+ getName(): String
	{abstract}{method}	+ doSomething(): void
	__Other__
}
class Head
Person "1" *-- "1" Head : contains >

' 类说明
class A << (I,#FF7700) 说明 >>
' 箭头颜色
A .[#395862].> B
'/


'''' 类图样式
' 全局样式
skinparam {
	' 全局背景颜色
	backgroundColor #F0F7F7
	' 画布样式
	DiagramBorderColor #677C81
	DiagramBorderThickness 1
	' 分辨率
	Dpi 1920
	' 是否启用阴影
	Shadowing false
	' 手写样式是否启用
	handwritten false
	' 箭头
	ArrowColor #6D6D6D
    ArrowThickness 1
	' 标题样式
    TitleFontColor #6A8181
    TitleFontName YouYuan
    TitleFontSize 20
	' 类图主样式
	ClassBackgroundColor #E3EAED
    ClassHeaderBackgroundColor  #CBD8D8
	ClassBorderColor #A0A4AF
    ClassBorderThickness 1
    ClassAttributeIconSize 10
    ClassFontColor #283428
    ClassFontName Fira Code
    ClassFontSize 17
    ' 图头标志样式
    StereotypeABackgroundColor #C3E88D
    StereotypeABorderColor #347998
    StereotypeCBackgroundColor #4FC3F7
    StereotypeCBorderColor #3683A5
    StereotypeEBackgroundColor #F78C6C
    StereotypeEBorderColor #894D3E
    StereotypeIBackgroundColor #C3E88D
    StereotypeIBorderColor #6F8150
    StereotypeNBackgroundColor #C691E9
    StereotypeNBorderColor #5D436A
	' 类图包样式
	PackageBackgroundColor #EAF9F7-#D4F1F2
	PackageBorderThickness 1
	PackageBorderColor 6D6D6D
    PackageFontColor #283428
    PackageFontName Fira Code
    PackageFontSize 10
    '''包样式 <<Node>> <<Rectangle>> <<Folder>> <<Frame>> <<Cloud>> <<Database>>
    PackageStyle Frame
    PackageTitleAlignment center
	' 注释样式
	NoteBackgroundColor #E3EAED
	NoteBorderColor #47A7AB
    NoteFontColor #283428
    NoteFontName YouYuan
    NoteFontSize 14
    ' 时序图生命线样式
	LifeLineBorderColor #DarkSlateGray
	LifeLineBackgroundColor #DarkSeaGreen
	' 时序图类样式
	ParticipantBorderColor #586736
	ParticipantBackgroundColor #YellowGreen
	ParticipantFontName Fira Code
	ParticipantFontSize 17
	ParticipantFontColor #283428
	' 时序图角色样式
	ActorBackgroundColor #Gold
	ActorBorderColor #black
	ActorFontColor #283428
	ActorFontSize 17
	ActorFontName Fira Code
}
@enduml